<?xml version="1.0" encoding="UTF-8" standalone="no"?>
<!DOCTYPE svg PUBLIC "-//W3C//DTD SVG 1.1//EN" "http://www.w3.org/Graphics/SVG/1.1/DTD/svg11.dtd">
<svg width="100%" height="100%" viewBox="0 0 1000 1000" version="1.1" xmlns="http://www.w3.org/2000/svg" xmlns:xlink="http://www.w3.org/1999/xlink" xml:space="preserve" xmlns:serif="http://www.serif.com/" style="fill-rule:evenodd;clip-rule:evenodd;stroke-linejoin:round;stroke-miterlimit:2;">
    <path d="M1000,200L1000,800C1000,910.383 910.383,1000 800,1000L200,1000C89.617,1000 0,910.383 0,800L0,200C0,89.617 89.617,0 200,0L800,0C910.383,0 1000,89.617 1000,200Z" style="fill:white;"/>
    <g transform="matrix(9.345768,0,0,9.355117,-0.001869,27.56637)">
        <g transform="matrix(0.8843,0,0,0.83471,-21.223,-14.19)">
            <rect x="24" y="17" width="121" height="121" style="fill:none;"/>
        </g>
        <g transform="matrix(1,0,0,1,-26.41,-29.49)">
            <path d="M119.81,105.98C119.667,105.849 119.465,105.804 119.28,105.86C115.09,99.67 109.76,93.8 104.6,88.13L103.75,87.2C103.75,87.09 103.7,86.99 103.63,86.9C103.545,86.793 103.424,86.722 103.29,86.7L103.12,86.52L103,86.43C102.85,86.11 102.47,85.87 102.05,86.08C100.47,86.89 99.05,88.05 97.65,89.12C95.78,90.55 93.95,92.04 92.23,93.64C91.53,94.29 90.84,94.97 90.26,95.73C89.98,96.1 90.19,96.45 90.53,96.6C89.31,97.8 88.08,99.05 86.85,100.34C86.74,100.46 86.68,100.62 86.69,100.78C86.7,100.94 86.78,101.09 86.91,101.19L89.07,102.84C89.07,102.84 89.08,102.87 89.1,102.88C92.19,105.93 97.61,110.16 103.35,114.64C104.2,115.31 105.06,115.98 105.92,116.65C106.31,117.12 106.68,117.59 107.04,118.05C107.23,118.3 107.59,118.35 107.84,118.16C107.97,118.26 108.1,118.37 108.23,118.47C108.33,118.548 108.453,118.59 108.58,118.59C108.756,118.59 108.922,118.509 109.03,118.37C109.1,118.28 109.13,118.17 109.14,118.06C109.18,118.06 109.21,118.09 109.24,118.09C109.39,118.09 109.55,118.03 109.66,117.91L119.84,106.79C119.936,106.687 119.989,106.551 119.989,106.41C119.989,106.249 119.92,106.096 119.8,105.99L119.81,105.98ZM90.58,102.13C90.65,102.22 90.72,102.3 90.79,102.38C91.95,103.36 93.19,104.42 94.45,105.5L89.33,101.59C89.33,101.59 89.01,101.37 88.81,101.23C88.7,101.15 88.6,101.07 88.5,100.99L88.12,100.67C88.12,100.67 88.19,100.6 88.22,100.56L88.57,100.21C90.29,98.47 93.24,95.57 94.76,94.15C93.15,95.77 89.89,100.52 90.59,102.13L90.58,102.13ZM108.11,115.94L103.89,112.72C102.24,111.01 100.46,109.32 98.65,107.69C100.93,109.45 102.88,110.94 103.17,111.2C105.38,113.17 105.28,112.81 106.8,114.11L108.63,115.44C108.45,115.6 108.27,115.77 108.1,115.93L108.11,115.94ZM109.17,116.75L109.09,116.69C109.25,116.56 109.42,116.44 109.58,116.31L109.18,116.75L109.17,116.75ZM42.24,51.45C42.38,52.17 42.51,52.88 42.64,53.56C43.33,57.26 43.97,60.59 45.19,63.12L45.67,65.04C45.86,65.77 46.13,66.68 46.38,66.87C49.23,69.39 53.6,73.15 58.27,76.69C58.48,76.85 58.77,76.84 58.97,76.68C58.98,76.7 59,76.71 59.01,76.72C59.12,76.82 59.25,76.87 59.39,76.87C59.55,76.87 59.7,76.81 59.81,76.68C65.79,70.03 70.24,64.56 73.41,59.98C73.61,59.73 73.71,59.44 73.7,59.14C73.9,58.9 74.11,58.66 74.3,58.46C74.401,58.356 74.458,58.216 74.458,58.071C74.458,57.88 74.361,57.702 74.2,57.6C74.188,57.464 74.127,57.336 74.03,57.24C72.64,55.9 71.61,54.93 70.57,53.96C68.73,52.24 66.83,50.46 62.8,46.45C62.78,46.43 62.75,46.41 62.73,46.39C62.669,46.327 62.593,46.279 62.51,46.25C61.4,45.86 59.12,45.47 56.25,44.97C52.03,44.25 46.25,43.25 41.05,41.7L41.01,41.7L41.01,41.69C41.01,41.69 40.99,41.69 40.98,41.71L40.97,41.71L41.01,41.69C41.01,41.69 40.7,41.7 40.64,41.73C40.56,41.77 40.5,41.82 40.45,41.88C40.4,41.94 40.36,42 39.98,42.08C39.6,42.16 40.06,42.08 40.09,42.08L39.98,42.08L39.98,42.11C40.05,42.45 40.03,42.69 40.14,43.08C40.12,43.18 40.35,44.1 40.38,44.19L42.21,51.45L42.24,51.45ZM73.19,57.99C73.19,57.99 73.16,58.03 73.15,58.04L72.51,57.33C72.73,57.54 72.95,57.75 73.19,57.99ZM66.1,67.38C66.1,67.38 66.03,67.46 66,67.5L65.98,67.48C66.02,67.45 66.06,67.41 66.11,67.38L66.1,67.38ZM62.05,47.28C62.4,47.63 63.79,48.93 64.11,49.25C62.66,48.59 59.05,46.91 57.37,46.37C59.02,46.66 61.3,47.03 62.05,47.28ZM42.87,44.51C43.71,45.95 44.37,51 45.03,55.91C44.66,54.33 44.34,52.79 44.04,51.31C43.52,48.75 43.04,46.46 42.37,44.43C42.51,44.44 42.68,44.46 42.86,44.48C42.86,44.49 42.86,44.5 42.88,44.51L42.87,44.51ZM42.58,43.3C42.35,43.28 42.14,43.26 41.96,43.25C41.94,43.21 41.93,43.17 41.92,43.13L42.58,43.31L42.58,43.3ZM40.36,43.75L40.36,43.73L40.36,43.75ZM118.9,42.57C118.94,42.34 117.8,41.33 118.16,41.31C119.01,41.27 119.02,39.96 118.16,40C117.03,40.06 115.89,40.32 114.79,40.53C112.81,40.9 110.84,41.31 108.87,41.74C104.48,42.68 100.1,43.67 95.77,44.85C94.41,45.22 92.91,45.55 91.66,46.21C91.24,46.43 91.26,46.88 91.49,47.16C91.4,47.21 91.31,47.24 91.21,47.25C90.84,47.32 90.47,47.38 90.1,47.44C89.827,47.484 89.623,47.722 89.623,47.999C89.623,48.105 89.653,48.21 89.71,48.3C87.39,51.4 84.75,54.74 81.89,58.25C79.08,61.46 76.16,64.88 73.17,68.39C63.76,79.45 53.09,91.99 41.27,103.03C41.04,103.24 41.03,103.6 41.24,103.83C41.29,103.89 41.36,103.93 41.43,103.96C41.27,104.11 41.11,104.26 40.95,104.4C40.85,104.49 40.81,104.6 40.79,104.72C40.71,104.8 40.63,104.89 40.56,104.97C40.35,105.2 40.36,105.56 40.59,105.77C40.82,105.98 41.18,105.97 41.39,105.74C41.43,105.7 41.47,105.65 41.51,105.61C41.669,105.442 41.889,105.347 42.12,105.347C42.351,105.347 42.571,105.442 42.73,105.61C43.42,106.35 44.07,107.05 44.68,107.7L43.3,106.55C43.061,106.351 42.701,106.382 42.5,106.62C42.3,106.86 42.33,107.22 42.57,107.42L57.39,119.85C57.5,119.94 57.63,119.98 57.76,119.98C57.91,119.98 58.05,119.92 58.16,119.81L58.52,119.45C58.734,119.546 58.986,119.498 59.15,119.33C79.24,99.15 95.42,83.9 113.95,70.27C114.12,70.15 114.2,69.95 114.18,69.76C114.402,69.736 114.591,69.583 114.66,69.37C118.08,58.91 118.74,49.65 118.94,45.1C118.94,45.07 118.95,45.05 118.96,45.03C118.98,44.98 118.99,44.93 119,44.89C119.03,44.78 119.05,44.7 119.05,44.7C119.31,43.92 119.22,43.17 118.9,42.55L118.9,42.57ZM82.98,58.94C83.88,57.91 84.77,56.9 85.65,55.92C79.89,63.5 70.35,75.18 56.84,89.06C66.04,78.88 75.31,68.33 82.98,58.94ZM50.43,111.75L50.4,111.72C50.51,111.74 50.59,111.76 50.6,111.76C50.544,111.75 50.486,111.75 50.43,111.76L50.43,111.75ZM57.33,118.17L57.28,118.13L57.31,118.1C57.33,118.1 57.34,118.12 57.35,118.12C57.35,118.14 57.33,118.15 57.32,118.17L57.33,118.17ZM65.69,110.96L67.07,109.52C67.08,109.53 67.09,109.55 67.1,109.57C66.63,110.03 66.16,110.5 65.68,110.96L65.69,110.96ZM67.93,108.75C68.19,108.45 68.49,108.1 68.8,107.73C68.81,107.72 68.82,107.7 68.84,107.69C72.13,104.3 75.52,100.87 79.02,97.44C79.04,97.42 79.07,97.4 79.09,97.38C79.95,96.72 80.91,95.99 81.81,95.3C77.29,99.62 72.7,104.08 67.93,108.76L67.93,108.75ZM89.58,52.87C87.72,55.29 85.68,58.43 83.95,60.94C78.49,68.85 60.91,88.22 60.52,88.59C57.81,91.21 49.64,99.05 44.43,103.96C44.29,104.09 44.18,104.2 44.09,104.31C43.948,104.162 43.868,103.965 43.868,103.76C43.868,103.54 43.96,103.33 44.12,103.18C68.94,79.78 84,60.29 90.12,51.8C89.99,52.13 89.88,52.49 89.57,52.89L89.58,52.87ZM106.09,59.97L106.08,59.99C106.08,59.97 106.06,59.92 106.09,59.97ZM99.29,64.29C97.03,62.98 95.97,61.02 96.58,59.04L96.77,58.38C96.85,58.19 96.94,58 97.05,57.81C97.64,56.83 98.54,55.96 99.57,55.45C99.62,55.43 99.67,55.42 99.72,55.41C99.667,55.273 99.653,55.124 99.68,54.98C99.73,54.67 99.93,54.4 100.34,54.4C101.01,54.4 103.09,55.02 103.88,55.7C104.12,55.89 104.35,56.1 104.56,56.33C104.86,56.68 105.3,57.25 105.52,57.66C105.65,57.72 105.75,58.28 105.9,58.57C106.04,59.03 106.1,59.5 106.08,59.97C106.08,59.99 106.08,59.99 106.09,60C106.06,60.07 106.09,60.37 106.05,60.4C105.95,61.12 105.69,61.83 105.3,62.45C105.26,62.5 105.23,62.56 105.19,62.61C105.19,62.62 105.17,62.63 105.16,62.65C104.86,63.08 104.51,63.48 104.08,63.78C102.82,64.67 101.35,64.94 99.88,64.57C99.686,64.496 99.496,64.413 99.31,64.32L99.29,64.29ZM115.56,62.66C115.07,64.71 114.47,66.85 113.76,69.04C113.73,69.12 113.73,69.2 113.73,69.27C113.63,69.28 113.54,69.32 113.46,69.38C109.02,72.64 104.73,76 100.48,79.49C104.15,76.17 107.87,72.87 111.71,69.54C112.822,68.573 113.568,67.252 113.82,65.8L114.38,62.43L114.41,62.33C114.66,61.62 115.75,61.93 115.58,62.66L115.56,62.66Z" style="fill:rgb(0,117,149);fill-rule:nonzero;"/>
        </g>
    </g>
</svg>
